<svg xmlns="http://www.w3.org/2000/svg" viewBox="0 0 32 32">
  <path fill="#00667a" d="M0 0h32v32H0z"/>
  <path fill="#044e4e" d="M17.898 22.335h-2.686v7.276c-1.428.268-4.012.276-5.44 0V6.559l.238-.238c4.115-.095 10.548-1.287 13.94 1.904 3.147 2.961 3.099 9.087-.034 12.036-1.609 1.515-3.881 2.074-6.018 2.074m-2.686-12.002v7.922c1.373-.049 3.193.213 4.327-.765.49-.423.862-1.079.977-1.717.302-1.672.29-4.139-1.462-5.083-1.141-.615-2.605-.269-3.842-.357"/>
  <path fill="#fff" d="M15.898 20.335h-2.686v7.276c-1.428.268-4.012.276-5.44 0V4.559l.238-.238c4.115-.095 10.548-1.287 13.94 1.904 3.147 2.961 3.099 9.087-.034 12.036-1.609 1.515-3.881 2.074-6.018 2.074M13.212 8.333v7.922c1.373-.049 3.193.213 4.327-.765.49-.423.862-1.079.977-1.717.302-1.672.29-4.139-1.462-5.083-1.141-.615-2.605-.269-3.842-.357"/>
</svg>